<?xml version="1.0" standalone="no"?>
<!DOCTYPE svg PUBLIC "-//W3C//DTD SVG 20010904//EN"
 "http://www.w3.org/TR/2001/REC-SVG-20010904/DTD/svg10.dtd">
<svg version="1.0" xmlns="http://www.w3.org/2000/svg"
 width="700.000000pt" height="700.000000pt" viewBox="0 0 700.000000 700.000000"
 preserveAspectRatio="xMidYMid meet">
<metadata>
Created by potrace 1.11, written by Peter Selinger 2001-2013
</metadata>
<g transform="translate(0.000000,700.000000) scale(0.100000,-0.100000)"
fill="#000000" stroke="none">
<path d="M3417 6344 c-1 -1 -52 -4 -114 -8 -61 -4 -119 -8 -130 -10 -10 -2
-40 -7 -68 -10 -27 -4 -76 -11 -107 -17 -32 -5 -70 -12 -85 -15 -63 -11 -295
-79 -398 -116 -428 -157 -843 -440 -1140 -779 -75 -85 -91 -104 -150 -184
-454 -606 -645 -1355 -539 -2111 7 -56 16 -108 18 -115 3 -8 8 -30 11 -49 3
-19 10 -53 15 -75 6 -22 13 -51 16 -65 36 -173 206 -587 295 -716 16 -23 29
-45 29 -49 0 -15 166 -249 242 -340 660 -796 1688 -1167 2713 -979 255 46 512
134 752 255 132 67 300 167 337 201 11 10 23 18 28 18 4 0 16 6 25 14 10 8 56
45 103 82 482 382 830 918 984 1516 25 96 50 225 62 313 3 28 8 58 9 67 22
113 21 550 -1 661 -2 12 -6 45 -9 72 -14 125 -96 461 -134 550 -5 11 -30 72
-56 135 -217 533 -616 1004 -1115 1320 -83 53 -322 177 -410 214 -222 93 -526
173 -765 201 -103 12 -409 26 -418 19z"/>
</g>
</svg>
