<svg width="27" height="27" viewBox="0 0 27 27" fill="none" xmlns="http://www.w3.org/2000/svg">
<path d="M26.292 19.8153L22.5161 16.0473C21.1676 14.7016 18.8751 15.24 18.3357 16.9893C17.9312 18.2005 16.5826 18.8733 15.369 18.6041C12.6719 17.9313 9.03092 14.4325 8.35666 11.6066C7.9521 10.3954 8.76121 9.0497 9.97488 8.64604C11.728 8.10777 12.2674 5.8201 10.9188 4.47441L7.14299 0.706486C6.06417 -0.235495 4.44595 -0.235495 3.50198 0.706486L0.939794 3.26329C-1.6224 5.95467 1.2095 13.0868 7.54755 19.4115C13.8856 25.7363 21.0328 28.6968 23.7298 26.0054L26.292 23.4486C27.236 22.3721 27.236 20.7572 26.292 19.8153Z" fill="#161616"/>
</svg>
